# xmcd
#
# Track frame offsets: 
#        150
#        12580
#        25005
#        33380
#        45880
#        55835
#        67655
#        78227
#        95392
#        109177
#        121075
#        135900
#        147310
#        155812
#        167767
#
# Disc length: 2478 seconds
#
# Revision: 6
# Processed by: cddbd v1.4PL0 Copyright (c) Steve Scherf et al.
# Submitted via: ExactAudioCopy v0.90b3
#
DISCID=b309ac0f
DTITLE=Johnny Cash - The Man In Black (His Greatest Hits) - Disc 1
DYEAR=1999
DGENRE=Country
TTITLE0=Folsom Prison Blues (Live)
TTITLE1=I Walk The Line
TTITLE2=Guess Things Happen That Way
TTITLE3=Jackson (With June Carter)
TTITLE4=Ballad Of A Teenage Queen
TTITLE5=Flesh And Blood
TTITLE6=Daddy Sang Bass
TTITLE7=A Boy Named Sue (Live)
TTITLE8=Don't Take Your Guns To Town
TTITLE9=Ring Of Fire (With The Carter Family)
TTITLE10=There Ain't No Good Chain Gang (With Waylon Jennings)
TTITLE11=Big River
TTITLE12=The Rebel-Johnny Yuma
TTITLE13=What Is Truth
TTITLE14=One Piece At A Time
EXTD=
EXTT0=Live
EXTT1=
EXTT2=
EXTT3=With June Carter Cash
EXTT4=
EXTT5=
EXTT6=
EXTT7=Live
EXTT8=
EXTT9=With The Carter Family
EXTT10=With Waylon Jennings
EXTT11=
EXTT12=
EXTT13=
EXTT14=
PLAYORDER=
